<svg xmlns="http://www.w3.org/2000/svg" xmlns:xlink="http://www.w3.org/1999/xlink" width="40" zoomAndPan="magnify" viewBox="0 0 30 30.000001" height="40" preserveAspectRatio="xMidYMid meet" version="1.0"><defs><clipPath id="edd6709937"><path d="M 4 15 L 19 15 L 19 29.03125 L 4 29.03125 Z M 4 15 " clip-rule="nonzero"/></clipPath><clipPath id="422b62c0fc"><path d="M 16 0 L 27.339844 0 L 27.339844 11 L 16 11 Z M 16 0 " clip-rule="nonzero"/></clipPath><clipPath id="506790394c"><path d="M 0.484375 4 L 23 4 L 23 16 L 0.484375 16 Z M 0.484375 4 " clip-rule="nonzero"/></clipPath></defs><path fill="#6dabe9" d="M 19.703125 9.40625 L 3.292969 9.40625 C 3.082031 9.40625 2.90625 9.214844 2.90625 9 C 2.90625 8.785156 3.082031 8.59375 3.292969 8.59375 L 19.703125 8.59375 C 19.917969 8.59375 20.089844 8.785156 20.089844 9 C 20.089844 9.214844 19.917969 9.40625 19.703125 9.40625 Z M 13.996094 10.601562 C 13.628906 10.601562 13.328125 10.90625 13.328125 11.277344 C 13.328125 11.648438 13.628906 11.949219 13.996094 11.949219 C 14.367188 11.949219 14.667969 11.648438 14.667969 11.277344 C 14.667969 10.90625 14.367188 10.601562 13.996094 10.601562 Z M 12.363281 12.246094 C 11.996094 12.246094 11.695312 12.546875 11.695312 12.917969 C 11.695312 13.289062 11.996094 13.59375 12.363281 13.59375 C 12.734375 13.59375 13.035156 13.289062 13.035156 12.917969 C 13.035156 12.546875 12.734375 12.246094 12.363281 12.246094 Z M 11.136719 10.191406 C 10.765625 10.191406 10.464844 10.492188 10.464844 10.863281 C 10.464844 11.234375 10.765625 11.539062 11.136719 11.539062 C 11.503906 11.539062 11.804688 11.234375 11.804688 10.863281 C 11.804688 10.492188 11.503906 10.191406 11.136719 10.191406 Z M 11.136719 10.191406 " fill-opacity="1" fill-rule="nonzero"/><g clip-path="url(#edd6709937)"><path fill="#6dabe9" d="M 18.054688 28.242188 L 12.007812 25.492188 L 12.007812 15.804688 C 12.007812 15.589844 11.816406 15.417969 11.601562 15.417969 C 11.390625 15.417969 11.199219 15.589844 11.199219 15.804688 L 11.199219 25.460938 L 5.136719 28.242188 C 4.96875 28.316406 4.882812 28.527344 4.914062 28.703125 C 4.957031 28.882812 5.113281 29.03125 5.296875 29.03125 L 17.882812 29.03125 C 18.066406 29.03125 18.226562 28.882812 18.265625 28.703125 C 18.300781 28.519531 18.214844 28.316406 18.054688 28.242188 Z M 7.078125 28.21875 L 11.558594 26.167969 L 16.074219 28.21875 Z M 7.078125 28.21875 " fill-opacity="1" fill-rule="nonzero"/></g><g clip-path="url(#422b62c0fc)"><path fill="#6dabe9" d="M 27.328125 5.355469 C 27.328125 8.308594 24.9375 10.707031 22 10.707031 C 20.765625 10.707031 19.636719 10.277344 18.730469 9.570312 L 19.507812 9.179688 C 20.222656 9.65625 21.078125 9.933594 22 9.933594 C 24.511719 9.933594 26.554688 7.878906 26.554688 5.355469 C 26.554688 2.828125 24.511719 0.777344 22 0.777344 C 19.519531 0.777344 17.5 2.554688 17.449219 5.285156 L 16.675781 5.285156 C 16.726562 2.207031 19.09375 0 22 0 C 24.9375 0 27.328125 2.398438 27.328125 5.355469 Z M 22.449219 3.746094 L 22.449219 1.800781 C 22.449219 1.585938 22.261719 1.410156 22.046875 1.410156 C 21.832031 1.410156 21.644531 1.585938 21.644531 1.800781 L 21.644531 3.746094 C 21.644531 3.960938 21.832031 4.132812 22.046875 4.132812 C 22.261719 4.132812 22.449219 3.960938 22.449219 3.746094 Z M 23.617188 5.667969 C 23.429688 5.558594 23.195312 5.621094 23.085938 5.8125 C 22.976562 6 23.039062 6.234375 23.230469 6.347656 L 24.644531 7.171875 C 24.707031 7.207031 24.769531 7.222656 24.832031 7.222656 C 24.964844 7.222656 25.097656 7.152344 25.167969 7.027344 C 25.277344 6.839844 25.214844 6.601562 25.023438 6.492188 Z M 24.589844 3.25 L 23.179688 4.074219 C 22.992188 4.1875 22.929688 4.417969 23.035156 4.609375 C 23.101562 4.730469 23.234375 4.808594 23.367188 4.808594 C 23.429688 4.808594 23.5 4.789062 23.558594 4.753906 L 24.972656 3.929688 C 25.15625 3.820312 25.21875 3.589844 25.117188 3.398438 C 25.011719 3.207031 24.777344 3.140625 24.589844 3.25 Z M 24.589844 3.25 " fill-opacity="1" fill-rule="nonzero"/></g><g clip-path="url(#506790394c)"><path fill="#6dabe9" d="M 11.453125 15.757812 C 10.726562 15.757812 10 15.578125 9.335938 15.21875 L 8.160156 14.578125 C 6.761719 13.824219 5.875 12.398438 5.789062 10.816406 L 2.320312 9.070312 C 1.195312 8.507812 0.496094 7.367188 0.496094 6.101562 L 0.496094 5.253906 C 0.496094 5.039062 0.667969 4.867188 0.882812 4.867188 L 22.023438 4.867188 C 22.238281 4.867188 22.410156 5.039062 22.410156 5.253906 L 22.410156 6.101562 C 22.410156 7.367188 21.710938 8.507812 20.585938 9.070312 L 17.121094 10.816406 C 17.039062 12.398438 16.144531 13.820312 14.746094 14.578125 L 13.570312 15.21875 C 12.90625 15.578125 12.179688 15.757812 11.453125 15.757812 Z M 1.269531 5.644531 L 1.269531 6.101562 C 1.269531 7.070312 1.804688 7.941406 2.664062 8.371094 L 6.339844 10.226562 C 6.472656 10.289062 6.554688 10.429688 6.554688 10.574219 C 6.554688 11.960938 7.308594 13.234375 8.523438 13.894531 L 9.699219 14.535156 C 10.796875 15.132812 12.105469 15.132812 13.203125 14.535156 L 14.378906 13.894531 C 15.589844 13.234375 16.347656 11.960938 16.347656 10.574219 C 16.347656 10.429688 16.425781 10.289062 16.558594 10.226562 L 20.234375 8.371094 C 21.09375 7.9375 21.632812 7.066406 21.632812 6.101562 L 21.632812 5.644531 Z M 1.269531 5.644531 " fill-opacity="1" fill-rule="nonzero"/></g></svg>