<svg xmlns="http://www.w3.org/2000/svg" xmlns:xlink="http://www.w3.org/1999/xlink" width="40" zoomAndPan="magnify" viewBox="0 0 30 30.000001" height="40" preserveAspectRatio="xMidYMid meet" version="1.0"><defs><clipPath id="009ba88ca8"><path d="M 4 3 L 27 3 L 27 25.402344 L 4 25.402344 Z M 4 3 " clip-rule="nonzero"/></clipPath><clipPath id="f6d66701b1"><path d="M 27 1 L 29.515625 1 L 29.515625 25.402344 L 27 25.402344 Z M 27 1 " clip-rule="nonzero"/></clipPath><clipPath id="8461cefbe8"><path d="M 0.484375 2 L 5 2 L 5 25.402344 L 0.484375 25.402344 Z M 0.484375 2 " clip-rule="nonzero"/></clipPath></defs><g clip-path="url(#009ba88ca8)"><path fill="#6dabe9" d="M 15.574219 3.132812 C 9.441406 3.132812 4.472656 8.109375 4.472656 14.246094 C 4.472656 20.382812 9.441406 25.359375 15.574219 25.359375 C 21.703125 25.359375 26.675781 20.382812 26.675781 14.246094 C 26.675781 8.109375 21.703125 3.132812 15.574219 3.132812 Z M 15.574219 23.054688 C 10.714844 23.054688 6.773438 19.109375 6.773438 14.246094 C 6.773438 9.378906 10.714844 5.4375 15.574219 5.4375 C 20.433594 5.4375 24.375 9.378906 24.375 14.246094 C 24.375 19.109375 20.433594 23.054688 15.574219 23.054688 Z M 15.574219 23.054688 " fill-opacity="1" fill-rule="nonzero"/></g><path fill="#6dabe9" d="M 23.347656 14.246094 C 23.347656 14.757812 23.296875 15.261719 23.195312 15.761719 C 23.097656 16.265625 22.949219 16.75 22.753906 17.222656 C 22.558594 17.695312 22.320312 18.140625 22.035156 18.566406 C 21.753906 18.992188 21.429688 19.386719 21.070312 19.746094 C 20.707031 20.105469 20.316406 20.429688 19.890625 20.714844 C 19.46875 20.996094 19.019531 21.238281 18.546875 21.433594 C 18.078125 21.628906 17.589844 21.777344 17.089844 21.875 C 16.589844 21.976562 16.082031 22.023438 15.574219 22.023438 C 15.0625 22.023438 14.558594 21.976562 14.058594 21.875 C 13.554688 21.777344 13.070312 21.628906 12.597656 21.433594 C 12.128906 21.238281 11.679688 20.996094 11.253906 20.714844 C 10.832031 20.429688 10.4375 20.105469 10.078125 19.746094 C 9.714844 19.386719 9.394531 18.992188 9.109375 18.566406 C 8.828125 18.140625 8.585938 17.695312 8.390625 17.222656 C 8.195312 16.75 8.050781 16.265625 7.949219 15.761719 C 7.851562 15.261719 7.800781 14.757812 7.800781 14.246094 C 7.800781 13.734375 7.851562 13.226562 7.949219 12.726562 C 8.050781 12.226562 8.195312 11.738281 8.390625 11.269531 C 8.585938 10.796875 8.828125 10.347656 9.109375 9.921875 C 9.394531 9.5 9.714844 9.105469 10.078125 8.746094 C 10.4375 8.382812 10.832031 8.058594 11.253906 7.777344 C 11.679688 7.492188 12.128906 7.253906 12.597656 7.058594 C 13.070312 6.863281 13.554688 6.714844 14.058594 6.613281 C 14.558594 6.515625 15.0625 6.464844 15.574219 6.464844 C 16.082031 6.464844 16.589844 6.515625 17.089844 6.613281 C 17.589844 6.714844 18.078125 6.863281 18.546875 7.058594 C 19.019531 7.253906 19.46875 7.492188 19.890625 7.777344 C 20.316406 8.058594 20.707031 8.382812 21.070312 8.746094 C 21.429688 9.105469 21.753906 9.5 22.035156 9.921875 C 22.320312 10.347656 22.558594 10.796875 22.753906 11.269531 C 22.949219 11.738281 23.097656 12.226562 23.195312 12.726562 C 23.296875 13.226562 23.347656 13.734375 23.347656 14.246094 Z M 23.347656 14.246094 " fill-opacity="1" fill-rule="nonzero"/><g clip-path="url(#f6d66701b1)"><path fill="#6dabe9" d="M 28.1875 2.386719 C 26.800781 4.886719 26.832031 7.34375 27.859375 10.511719 C 27.859375 10.511719 28.316406 12.011719 27.976562 13.265625 C 27.890625 13.585938 27.859375 13.917969 27.859375 14.25 L 27.855469 24.527344 C 27.855469 25.011719 28.277344 25.402344 28.769531 25.351562 C 29.199219 25.308594 29.511719 24.921875 29.511719 24.488281 L 29.511719 16.238281 L 29.515625 13.636719 L 29.511719 2.390625 C 29.515625 2.386719 29.515625 0.00390625 28.1875 2.386719 Z M 28.1875 2.386719 " fill-opacity="1" fill-rule="nonzero"/></g><g clip-path="url(#8461cefbe8)"><path fill="#6dabe9" d="M 4.082031 2.492188 L 4.039062 2.492188 C 3.824219 2.492188 3.648438 6.953125 3.648438 6.953125 C 3.648438 7.140625 3.511719 7.300781 3.328125 7.328125 C 3.101562 7.359375 2.898438 7.183594 2.898438 6.953125 C 2.898438 6.953125 2.722656 2.492188 2.511719 2.492188 L 2.460938 2.492188 C 2.246094 2.492188 2.070312 6.957031 2.070312 6.957031 C 2.070312 7.183594 1.871094 7.359375 1.644531 7.328125 L 1.597656 7.324219 C 1.414062 7.296875 1.273438 7.136719 1.273438 6.949219 C 1.273438 6.949219 1.101562 2.488281 0.886719 2.488281 C 0.671875 2.488281 0.5 7.355469 0.5 7.355469 C 0.5 7.964844 0.632812 8.898438 1.292969 9.441406 C 1.683594 9.765625 1.773438 10.121094 1.78125 10.265625 L 1.78125 24.527344 C 1.78125 24.980469 2.15625 25.355469 2.609375 25.355469 C 3.066406 25.355469 3.4375 24.980469 3.4375 24.527344 L 3.4375 10.328125 L 3.441406 10.328125 C 3.4375 10.296875 3.441406 10.269531 3.4375 10.238281 L 3.4375 10.136719 C 3.457031 9.738281 3.621094 9.511719 3.800781 9.359375 C 4.476562 8.796875 4.476562 7.917969 4.476562 7.363281 C 4.472656 7.363281 4.296875 2.492188 4.082031 2.492188 Z M 4.082031 2.492188 " fill-opacity="1" fill-rule="nonzero"/></g></svg>